<svg width="24" height="34" viewBox="0 0 24 34" fill="none" xmlns="http://www.w3.org/2000/svg">
<circle cx="12" cy="17" r="11.5" stroke="#43A3D6" stroke-opacity="0.75"/>
<rect x="3" width="18" height="34" fill="white"/>
<circle cx="12" cy="17" r="9.5" stroke="#43A3D6"/>
<g clip-path="url(#clip0_137_1605)">
<path d="M12.1448 13.6254C12.3229 13.7884 12.5027 13.9491 12.6829 14.1103C12.8135 14.227 12.9443 14.344 13.0749 14.4622C13.4864 14.8311 13.8974 15.2001 14.3085 15.5691C14.8566 16.0612 15.4046 16.5532 15.9535 17.0447L15.9867 17.0745L15.9868 17.1192C15.9868 17.3077 15.9869 17.4962 15.987 17.6848C15.9874 18.5178 15.9878 19.351 15.9863 20.1843C15.9876 20.6333 15.9874 21.08 15.9872 21.5265C15.987 21.9747 15.9868 22.4227 15.9881 22.8727C16.4679 22.8728 16.9476 22.8727 17.4274 22.8727C17.6839 22.8727 17.9404 22.8726 18.197 22.8726H18.2041L18.2041 22.8729C18.3874 22.886 18.5701 22.8152 18.7034 22.6972C18.8371 22.5789 18.9117 22.4223 18.8986 22.2693L18.8979 22.2609H18.8983C18.8979 21.094 18.898 19.9271 18.898 18.7602C18.898 17.9824 18.898 17.2045 18.8979 16.4267C18.8979 16.4264 18.8979 16.4261 18.8979 16.4257L12.1448 13.6254ZM12.1448 13.6254C12.1834 13.5813 12.2259 13.5277 12.2695 13.4705C12.3473 13.3685 12.4354 13.2459 12.5227 13.1245L12.5269 13.1186C12.6132 12.9986 12.6985 12.8799 12.7738 12.7806C12.8522 12.6774 12.9141 12.6028 12.9529 12.5681C13.1219 12.4168 13.3435 12.2995 13.5792 12.1747L13.5802 12.1742C13.7837 12.0664 13.9982 11.9528 14.1758 11.8086C15.1684 12.7041 16.1639 13.5974 17.1592 14.4907C17.6214 14.9054 18.0835 15.3202 18.5454 15.7351L12.1448 13.6254Z" fill="#43A3D6" stroke="white" stroke-width="0.2"/>
<path d="M7.31631 17.8114C7.55183 17.6625 7.7929 17.5101 8.00983 17.3379C8.01131 17.8201 8.01102 18.3014 8.01074 18.783C8.01046 19.2496 8.01018 19.7164 8.01151 20.1843C8.0105 20.6341 8.01071 21.0818 8.01092 21.5293C8.01113 21.9766 8.01133 22.4237 8.01033 22.8725C7.67916 22.8724 7.34809 22.8724 7.01704 22.8724C6.57355 22.8724 6.13009 22.8725 5.68649 22.8722C5.3894 22.8364 5.14018 22.6134 5.10157 22.3654C5.09959 21.7671 5.10008 21.1688 5.10057 20.5703C5.10074 20.3659 5.10091 20.1615 5.10098 19.9571C5.36296 19.718 5.57782 19.4474 5.78702 19.1837L5.78789 19.1826C6.00727 18.9062 6.22054 18.6375 6.48168 18.4038L6.48192 18.4036C6.72307 18.1864 7.01436 18.0022 7.31464 17.8124L7.31631 17.8114Z" fill="#43A3D6" fill-opacity="0.75" stroke="white" stroke-width="0.2"/>
<path d="M12.1306 10.1142L12.1155 10.1057C12.1107 10.103 12.0993 10.0994 12.0668 10.1001C12.0566 10.1004 12.0488 10.1008 12.0397 10.1012C12.0326 10.1016 12.0247 10.102 12.0145 10.1023C11.9954 10.103 11.9724 10.1033 11.9487 10.1007M12.1306 10.1142L5.38464 15.658M12.1306 10.1142L12.1476 10.1172C12.2858 10.1414 12.4107 10.2139 12.514 10.309L12.514 10.309L12.5149 10.3098C12.9973 10.7435 13.4802 11.1767 13.963 11.61M12.1306 10.1142L14.137 11.6315M11.9487 10.1007C11.9484 10.1007 11.948 10.1007 11.9477 10.1006L11.9588 10.0013L11.9493 10.1008C11.9491 10.1008 11.9489 10.1008 11.9487 10.1007ZM11.9487 10.1007C11.9213 10.0982 11.8925 10.1021 11.8579 10.1112C11.8346 10.1174 11.8159 10.1236 11.7947 10.1306C11.7788 10.1358 11.7616 10.1415 11.7401 10.1479L11.7114 10.0522L11.7407 10.1478C11.6471 10.1764 11.5661 10.2352 11.4888 10.308L11.4871 10.3096L11.4871 10.3096L11.1851 10.5809C9.27382 12.2978 7.36256 14.0147 5.45185 15.732M5.45185 15.732C5.45198 15.7319 5.45211 15.7318 5.45224 15.7316L5.38464 15.658M5.45185 15.732C5.45173 15.7321 5.45161 15.7322 5.45148 15.7323L5.38464 15.658M5.45185 15.732C5.42646 15.7553 5.40179 15.7772 5.37793 15.7983C5.31386 15.8552 5.25557 15.9069 5.20446 15.9669M5.38464 15.658C5.36207 15.6787 5.3391 15.699 5.31612 15.7194C5.24854 15.7793 5.18094 15.8393 5.12372 15.9075M5.20446 15.9669C5.20565 15.965 5.20681 15.9632 5.20794 15.9614L5.12372 15.9075M5.20446 15.9669C5.19519 15.9816 5.18454 15.999 5.17334 16.0173C5.15967 16.0397 5.14518 16.0634 5.13138 16.085M5.20446 15.9669C5.20309 15.9685 5.20171 15.9701 5.20035 15.9718L5.12372 15.9075M5.12372 15.9075L5.13138 16.085M5.13138 16.085C5.13346 16.073 5.13456 16.0599 5.13385 16.0462L5.03398 16.0514L5.11729 16.1067C5.12186 16.0998 5.12658 16.0925 5.13138 16.085ZM5.13138 16.085C5.12671 16.1119 5.11713 16.1334 5.11213 16.1446C5.11164 16.1457 5.11119 16.1467 5.1108 16.1476C5.10716 16.1559 5.10543 16.1605 5.10466 16.1625M5.13138 16.085L5.10039 16.5606C5.0999 16.4284 5.09942 16.2986 5.10449 16.1673L5.10492 16.1673L5.10466 16.1625M5.10466 16.1625L5.10441 16.158C5.10459 16.1613 5.10402 16.1639 5.10411 16.1639C5.10415 16.1639 5.1043 16.1635 5.10466 16.1625ZM5.1005 19.6901C5.09975 19.1084 5.1 18.5269 5.10026 17.9452L5.1005 19.6901ZM5.1005 19.6901C5.37977 19.4411 5.65782 19.1912 5.93603 18.9412C6.13914 18.7587 6.34233 18.5761 6.54614 18.3937C6.73301 18.2254 6.92013 18.0578 7.10714 17.8902C7.4195 17.6104 7.73156 17.3308 8.04163 17.049L8.04183 17.0488C8.70192 16.4521 9.36458 15.8574 10.0271 15.2628C10.4291 14.902 10.831 14.5413 11.2323 14.1802L11.233 14.1796L11.233 14.1796C11.3202 14.1026 11.4076 14.0235 11.4955 13.9439C11.6404 13.8126 11.7868 13.68 11.9364 13.5536M5.1005 19.6901L12.0013 13.6297M11.9364 13.5536C11.9365 13.5535 11.9366 13.5534 11.9367 13.5533L12.0013 13.6297M11.9364 13.5536C11.9363 13.5537 11.9362 13.5537 11.9361 13.5538L12.0013 13.6297M11.9364 13.5536C12.0488 13.4571 12.1572 13.3592 12.2667 13.2603C12.3338 13.1997 12.4012 13.1387 12.4703 13.0775M12.0013 13.6297C12.1145 13.5325 12.2249 13.4328 12.3353 13.333C12.4023 13.2725 12.4693 13.212 12.5369 13.1521C12.7446 12.9646 12.9531 12.778 13.1616 12.5914C13.5014 12.2872 13.8413 11.9831 14.1772 11.6754M12.4703 13.0775C12.4702 13.0776 12.4701 13.0777 12.4699 13.0778L12.5369 13.152L12.4706 13.0772C12.4705 13.0773 12.4704 13.0774 12.4703 13.0775ZM12.4703 13.0775C12.6785 12.8896 12.8872 12.7028 13.0956 12.5162C13.4092 12.2356 13.7223 11.9553 14.0328 11.6719M14.0328 11.6719C14.0356 11.6743 14.0382 11.6766 14.0407 11.6788C14.0648 11.7001 14.0838 11.7184 14.0987 11.7373L14.1772 11.6754M14.0328 11.6719C14.0576 11.6493 14.0824 11.6267 14.1071 11.604C14.1173 11.613 14.1273 11.6221 14.137 11.6315M14.0328 11.6719C14.0288 11.6684 14.0245 11.6647 14.02 11.6608C14.002 11.6452 13.9814 11.6275 13.963 11.61M14.1772 11.6754L14.137 11.6315M14.1772 11.6754L14.137 11.6315M13.963 11.61C13.9634 11.6103 13.9638 11.6107 13.9642 11.611L14.031 11.5366L13.9618 11.6088C13.9622 11.6092 13.9626 11.6096 13.963 11.61Z" fill="#E4001A" stroke="white" stroke-width="0.2"/>
<ellipse cx="12.1453" cy="20.0272" rx="1.14528" ry="1.02721" fill="#43A3D6"/>
<path d="M11.7488 20.5013L11.3964 22.7138H12.1453V20.5013H11.7488Z" fill="#43A3D6" stroke="#43A3D6" stroke-width="0.809876"/>
<path d="M12.6298 20.5013L12.9822 22.7138H12.2334V20.5013H12.6298Z" fill="#43A3D6" stroke="#43A3D6" stroke-width="0.809876"/>
</g>
<defs>
<clipPath id="clip0_137_1605">
<rect width="14" height="14" fill="white" transform="translate(5 10)"/>
</clipPath>
</defs>
</svg>
