<svg width="15" height="33" viewBox="0 0 15 33" fill="none" xmlns="http://www.w3.org/2000/svg">
<path d="M2.47611 32.0774L14.3727 17.4256C14.5817 17.1683 14.6986 16.8231 14.6986 16.4637C14.6986 16.1043 14.5817 15.7592 14.3727 15.5018L2.47611 0.844461C2.37878 0.724447 2.26241 0.629061 2.13387 0.563927C2.00532 0.498795 1.86722 0.46524 1.72769 0.46524C1.58817 0.46524 1.45006 0.498795 1.32152 0.563927C1.19298 0.629061 1.07661 0.724447 0.979276 0.844461C0.779035 1.09058 0.666931 1.42098 0.666931 1.76503C0.666931 2.10907 0.779035 2.43947 0.979276 2.68559L12.1665 16.4637L0.979276 30.2391C0.779721 30.4851 0.668052 30.8149 0.668052 31.1583C0.668052 31.5016 0.779721 31.8314 0.979276 32.0774C1.07661 32.1975 1.19298 32.2928 1.32152 32.358C1.45006 32.4231 1.58817 32.4567 1.72769 32.4567C1.86722 32.4567 2.00532 32.4231 2.13387 32.358C2.26241 32.2928 2.37878 32.1975 2.47611 32.0774Z" fill="#CCCCCC"/>
</svg>
