<svg width="15" height="33" viewBox="0 0 15 33" fill="none" xmlns="http://www.w3.org/2000/svg">
<path d="M12.5239 0.922573L0.627292 15.5744C0.418346 15.8317 0.301407 16.1769 0.301407 16.5363C0.301407 16.8957 0.418346 17.2408 0.627292 17.4982L12.5239 32.1555C12.6212 32.2756 12.7376 32.3709 12.8661 32.4361C12.9947 32.5012 13.1328 32.5348 13.2723 32.5348C13.4118 32.5348 13.5499 32.5012 13.6785 32.4361C13.807 32.3709 13.9234 32.2756 14.0207 32.1555C14.221 31.9094 14.3331 31.579 14.3331 31.235C14.3331 30.8909 14.221 30.5605 14.0207 30.3144L2.83351 16.5363L14.0207 2.76094C14.2203 2.51495 14.332 2.18514 14.332 1.84176C14.332 1.49838 14.2203 1.16857 14.0207 0.922573C13.9234 0.802559 13.807 0.707171 13.6785 0.642039C13.5499 0.576907 13.4118 0.54335 13.2723 0.54335C13.1328 0.54335 12.9947 0.576907 12.8661 0.642039C12.7376 0.707171 12.6212 0.802559 12.5239 0.922573Z" fill="#CCCCCC"/>
</svg>
