<svg width="16" height="15" viewBox="0 0 16 15" fill="none" xmlns="http://www.w3.org/2000/svg">
<path d="M7.15957 2.14262C7.54462 1.03488 7.73714 0.481013 8.08578 0.481013C8.43442 0.481013 8.62694 1.03488 9.01199 2.14262L9.97509 4.91332C10.0834 5.22501 10.1376 5.38085 10.262 5.47125C10.3865 5.56165 10.5514 5.56502 10.8813 5.57174L13.814 5.6315C14.9865 5.6554 15.5728 5.66734 15.6805 5.99892C15.7883 6.33049 15.321 6.68475 14.3865 7.39326L12.049 9.16541C11.786 9.36477 11.6545 9.46445 11.607 9.61072C11.5595 9.75699 11.6073 9.91491 11.7028 10.2308L12.5522 13.0384C12.8918 14.1609 13.0616 14.7222 12.7796 14.9271C12.4975 15.132 12.0162 14.7971 11.0536 14.1272L8.64586 12.4518C8.37501 12.2633 8.23958 12.1691 8.08578 12.1691C7.93198 12.1691 7.79655 12.2633 7.5257 12.4518L5.11796 14.1272C4.15534 14.7971 3.67402 15.132 3.39197 14.9271C3.10992 14.7221 3.27972 14.1609 3.61932 13.0384L4.46873 10.2308C4.56429 9.91491 4.61206 9.75699 4.56454 9.61072C4.51701 9.46445 4.38554 9.36477 4.12258 9.16541L1.7851 7.39326C0.850569 6.68475 0.383301 6.33049 0.491036 5.99892C0.598771 5.66734 1.18503 5.6554 2.35753 5.6315L5.29024 5.57174C5.62015 5.56502 5.78511 5.56165 5.90953 5.47125C6.03396 5.38085 6.08813 5.22501 6.19647 4.91332L7.15957 2.14262Z" fill="#56EB00"/>
</svg>
